<svg xmlns="http://www.w3.org/2000/svg" viewBox="0 0 237.01 237"><defs><style>.cls-1{fill:#778c47;}.cls-1,.cls-2,.cls-3,.cls-4,.cls-5,.cls-6{stroke:#000;stroke-miterlimit:10;}.cls-2{fill:#8c6239;}.cls-3{fill:#80ab2b;}.cls-4{fill:#f8f9d7;}.cls-5{fill:#8cc63f;}.cls-6{fill:#a67c52;}</style></defs><title>Element 7</title><g id="Ebene_2" data-name="Ebene 2"><g id="Ebene_1-2" data-name="Ebene 1"><path class="cls-1" d="M42.6,28.16A118.07,118.07,0,0,0,46,211.62L46.5,160l146,1.43L192,210.81c.81-.64,1.61-1.3,2.4-2A118,118,0,0,0,42.6,28.16Z"/><path class="cls-2" d="M46.5,160,46,211.62a118,118,0,0,0,146-.81l.48-49.39Z"/><path class="cls-3" d="M47.77,5.18h146a0,0,0,0,1,0,0v32a20,20,0,0,1-20,20h-106a20,20,0,0,1-20-20v-32A0,0,0,0,1,47.77,5.18Z" transform="translate(241.22 63.54) rotate(-179.44)"/><rect class="cls-4" x="47.75" y="31.18" width="146" height="3" transform="translate(241.18 66.54) rotate(-179.44)"/><path class="cls-5" d="M145.69,108.57h-.24c.59.11,1.18.19,1.76.24.43.06.85.14,1.28.24-.43-.1-.83-.21-1.2-.32A7.81,7.81,0,0,0,145.69,108.57Z"/><path class="cls-5" d="M147.69,103.29h.72l3.2-.08A27.76,27.76,0,0,0,147,103a25.83,25.83,0,0,1-4.64-.24v.32c.91,0,1.8,0,2.68.12S146.79,103.29,147.69,103.29Z"/><path class="cls-5" d="M113.69,135.37a24.39,24.39,0,0,0,2.8-1.12,7.64,7.64,0,0,0,2.88-2.24,14.17,14.17,0,0,1-2.88,2C115.59,134.49,114.65,135,113.69,135.37Z"/><path class="cls-5" d="M139.77,84.41l.24.32a8.73,8.73,0,0,1,1.72-.24c.83,0,1.43-.1,1.8-.16h-1.92A15.5,15.5,0,0,0,139.77,84.41Z"/><path class="cls-5" d="M47.51,56.46l-1,103.86,146,1.43,1-103.86Zm75.54,73.71a13.87,13.87,0,0,1-4.24,4.52,21.23,21.23,0,0,1-6,2.8,47.55,47.55,0,0,1-6.92,1.52,63.05,63.05,0,0,1-7,.64q-3.48.12-6.28.12h-8c-.48,0-1.13,0-2,0s-1.64-.08-2.44-.16a8.35,8.35,0,0,1-2.08-.44c-.58-.21-.88-.48-.88-.8l.08-.4q3.28.16,6.48.28t6.48.12h6.08c1.82-.05,3.63-.16,5.44-.32l-2.72.16H92.57q-7.51,0-14.8-.48a4.1,4.1,0,0,0,.16-.88,1.41,1.41,0,0,0-.16-.64l-.44,0a4.36,4.36,0,0,1-.68,0c-.58,0-1.24,0-2-.08a12.71,12.71,0,0,1-2.08-.32,5.37,5.37,0,0,1-1.68-.68,1.27,1.27,0,0,1-.68-1.08,1.12,1.12,0,0,1,.56-.88,8.14,8.14,0,0,1,1.32-.72c.51-.21,1-.4,1.52-.56s.9-.29,1.16-.4q3.84.48,7.68.8c2.56.22,5.12.32,7.68.32,1,0,2.3,0,4,0s3.58-.12,5.6-.28,4.08-.41,6.16-.76a29.77,29.77,0,0,0,5.68-1.48,12.83,12.83,0,0,0,4.16-2.4,4.63,4.63,0,0,0,1.6-3.6,6.51,6.51,0,0,0-.76-3.16,8.78,8.78,0,0,0-2-2.48,11.72,11.72,0,0,0-2.76-1.8,8.28,8.28,0,0,0-1.2-.56c.43.22.83.43,1.2.64a11.91,11.91,0,0,1,2.6,2,10.23,10.23,0,0,1,1.88,2.56,6.84,6.84,0,0,1,.72,3.16,4.26,4.26,0,0,1-1.4,3.24,11.11,11.11,0,0,1-3.6,2.2,24.57,24.57,0,0,1-4.88,1.36c-1.78.32-3.56.56-5.32.72s-3.38.26-4.88.28-2.66,0-3.52,0q-4.08,0-8.2-.28c-2.74-.18-5.48-.41-8.2-.68a24.39,24.39,0,0,1,2.92-.6,23,23,0,0,1,3-.2c1.71,0,3.39,0,5,0s3.31,0,5,0c2,0,3.92,0,5.84-.12a51.64,51.64,0,0,0,5.92-.6l.24,1c.8-.16,1.82-.41,3-.76a22,22,0,0,0,3.56-1.32,10.48,10.48,0,0,0,3-2,3.76,3.76,0,0,0,1.24-2.8,5.75,5.75,0,0,0-1.68-4.08,17.11,17.11,0,0,0-4.28-3.16,34.77,34.77,0,0,0-5.88-2.44q-3.27-1-6.44-1.84t-6-1.44a46.3,46.3,0,0,1-4.48-1.2v.48a38.84,38.84,0,0,0,4.4,1.32l5.88,1.48q3.17.81,6.36,1.8a35.58,35.58,0,0,1,5.8,2.36,15.6,15.6,0,0,1,4.24,3.12,5.7,5.7,0,0,1,1.64,4,2.81,2.81,0,0,1-1.2,2.24,11.44,11.44,0,0,1-2.84,1.64,20.4,20.4,0,0,1-3.32,1.08c-1.12.27-2,.46-2.56.56.7-.16,1.59-.38,2.68-.68a19.44,19.44,0,0,0,3.2-1.16,10.55,10.55,0,0,0,2.68-1.72,3,3,0,0,0,1.12-2.36,4.77,4.77,0,0,0-1.76-3.76,17.21,17.21,0,0,0-4.64-2.72,49.49,49.49,0,0,0-6.56-2.16q-3.67-1-7.56-2.08c-2.58-.74-5.1-1.6-7.56-2.56a27.73,27.73,0,0,1-6.56-3.6,17.64,17.64,0,0,1-4.64-5.12,13.69,13.69,0,0,1-1.76-7.12,12,12,0,0,1,2-6.92,15.69,15.69,0,0,1,5-4.64,23.27,23.27,0,0,1,6.76-2.6,33.78,33.78,0,0,1,7.12-.8,34.43,34.43,0,0,1,9.88,1.44,40.85,40.85,0,0,1,9.16,4,.8.8,0,0,0-.56.44,5.31,5.31,0,0,0-.12.6,1.53,1.53,0,0,1-.16.56.52.52,0,0,1-.52.24,5.3,5.3,0,0,1-1.24-.28c-.61-.18-1.26-.4-2-.64l-2-.68a10.94,10.94,0,0,1-1.28-.48l-.24.72c.48.22,1.11.52,1.88.92a14.18,14.18,0,0,1,2.24,1.44,10.5,10.5,0,0,1,1.84,1.8,3.07,3.07,0,0,1,.76,1.92c0,.7-.32,1-1,1a8,8,0,0,1-2.84-.64l-3.64-1.4c-1.33-.5-2.76-1-4.28-1.4a17.19,17.19,0,0,0-4.6-.64,27.83,27.83,0,0,0-3.56.28,16.92,16.92,0,0,0-3.92,1,9.21,9.21,0,0,0-3.16,2.08,4.6,4.6,0,0,0-1.28,3.32,3.8,3.8,0,0,0,1.72,3.12A17.88,17.88,0,0,0,90.69,101c1.9.7,4,1.36,6.44,2s4.87,1.35,7.4,2.12a78.28,78.28,0,0,1,7.4,2.68,29.79,29.79,0,0,1,6.44,3.68,17.2,17.2,0,0,1,4.56,5.12,13.61,13.61,0,0,1,1.72,7A12.83,12.83,0,0,1,123.05,130.17Zm43.32-43.36a2.57,2.57,0,0,1-.92.64,3.4,3.4,0,0,1-1.2.28c-.43,0-.82,0-1.2,0-3.36,0-6.82-.17-10.4-.52s-7.12-.81-10.64-1.4l-1.52.4a12.78,12.78,0,0,1,.2,1.48c.08.78.18,1.71.28,2.8s.23,2.26.36,3.48.25,2.36.36,3.4.19,1.92.24,2.64.08,1.11.08,1.16h3.2v.8a9.8,9.8,0,0,1,2.48-.4,12.57,12.57,0,0,1,2.48.24,13.49,13.49,0,0,0,2.64.24,8.34,8.34,0,0,0,1.24-.08,9.66,9.66,0,0,0,1.24-.24v-.56q-1.2.09-2.4.12c-.8,0-1.6,0-2.4,0-.53,0-1.05,0-1.56,0s-1-.06-1.48-.12q3.36,0,6.6-.24t6.6-.24a4.47,4.47,0,0,1,2.48.72,2.47,2.47,0,0,1,1.12,2.24,1.53,1.53,0,0,1-.16.72.56.56,0,0,1-.56.32l-.48-.08v.72a5,5,0,0,1,1.28,1.56,4,4,0,0,1,.48,1.88,1.44,1.44,0,0,1-.76,1.28,6.15,6.15,0,0,1-1.88.76,13.05,13.05,0,0,1-2.52.36c-.93.06-1.8.08-2.6.08a33.31,33.31,0,0,1-6.52-.6,30.7,30.7,0,0,0-6-.6,7.47,7.47,0,0,0-1.28.16c.16,1.76.24,3.55.24,5.36,0,2.46-.08,4.92-.24,7.4s-.24,4.95-.24,7.4c0,.38,0,.86.08,1.44a17.4,17.4,0,0,1,.08,1.76,6.44,6.44,0,0,1-.28,2,1.23,1.23,0,0,1-1.32.88V115.21c-.16,1.6-.25,3.19-.28,4.76s0,3.14,0,4.68V133c0,1.12-.05,2.3-.16,3.52l-1.2-.24v1.44a3.47,3.47,0,0,1-.84,1,1.72,1.72,0,0,1-1.16.44,2.09,2.09,0,0,1-1.28-.36,2.54,2.54,0,0,1-.76-.92,4,4,0,0,1-.36-1.24,11.33,11.33,0,0,1-.08-1.24q0-3.44.32-7t.32-7a39.09,39.09,0,0,0-.24-4.32c-.16-1.44-.34-2.88-.56-4.32.06,2.24.12,4.44.2,6.6s.12,4.34.12,6.52c0,1.87-.05,3.7-.16,5.48a45.65,45.65,0,0,1-.64,5.4,4.26,4.26,0,0,1-1-2.72c0-1.22,0-2.48.12-3.76s.12-2.53.12-3.76h1a36.39,36.39,0,0,1-.56-5.28l-.16-5.36q-.08-2.71-.24-5.4a30.26,30.26,0,0,0-.8-5.32l-.48.24a172.24,172.24,0,0,1,1.2,19q-.24-7.68-1.12-15.2-.87-8-1.52-16.08a3.38,3.38,0,0,1-.2-.92c0-.34,0-.68,0-1,0-1,0-2,.12-2.92s.12-1.93.12-3l2-.16a.92.92,0,0,1,1,.92,12.15,12.15,0,0,1,.12,1.48h1a8.34,8.34,0,0,1,.76-2.28,3.09,3.09,0,0,1,1.72-1.64l-.08-.24-.72.24A2.42,2.42,0,0,1,136,82.45a3.75,3.75,0,0,1-.36-1.64,2.11,2.11,0,0,1,.16-.8,2,2,0,0,0,.16-.8,23.21,23.21,0,0,0,3.64-.28,24.47,24.47,0,0,1,3.64-.28c1.34,0,2.66.07,4,.2s2.63.26,4,.36a40.66,40.66,0,0,0-4.64-.52c-1.54-.08-3.09-.12-4.64-.12-1,0-1.9,0-2.84,0l-2.84.12A3.36,3.36,0,0,1,138,77.29a7.5,7.5,0,0,1,2.32-.4h.4l2,.08.32.8a5.36,5.36,0,0,1,1.2-.16h1.28a27.56,27.56,0,0,1,3.84.28,27.2,27.2,0,0,0,4,.28h1a3.66,3.66,0,0,0,1-.16l.16-.4a1.41,1.41,0,0,0-.4-.08,38.78,38.78,0,0,1-5.12-.32q-2.64-.31-5.28-.48,4.17.17,8.4.64l2,.16h.4v.08q3.12.17,6.32.16a4.51,4.51,0,0,1,2.12.48,4.35,4.35,0,0,0,2,.48v1.84a2,2,0,0,1-.16.84.57.57,0,0,1-.56.36l-.48-.08v.72a5.06,5.06,0,0,1,1.36,1.44,3.33,3.33,0,0,1,.56,1.84A1.6,1.6,0,0,1,166.37,86.81Z"/><path class="cls-6" d="M115.57,227.79s-11.11-24,2-31.06,14.79-.76,34.3-13.12c5.7-4.06-3,44.39-31.78,45.44-3-12.22,1.82-17.81,5.68-24.93C109.41,210.61,115.57,227.79,115.57,227.79Z"/><path class="cls-6" d="M113.57,228a51.18,51.18,0,0,1-2.46-5.83c-8.7-8.55-11.18-30-11.18-30s4.77,9.67,8.8,15c.82-10.1,10.21-13.24,10.21-13.24s-27.3-36-23.36-26.68S82,193.88,88.44,209.44,113.57,228,113.57,228Z"/></g></g></svg>