<svg xmlns="http://www.w3.org/2000/svg" viewBox="0 0 956 956"><defs><style>.cls-1{fill:none;stroke:#768b48;stroke-miterlimit:10;stroke-width:10px;}.cls-2{fill:#768b48;}</style></defs><title>Element 1</title><g id="Ebene_2" data-name="Ebene 2"><g id="Ebene_1-2" data-name="Ebene 1"><path class="cls-1" d="M828,648.5a100,100,0,0,1-100,100H228a100,100,0,0,1,0-200H728A100,100,0,0,1,828,648.5Z"/><path class="cls-2" d="M478,0C214,0,0,214,0,478S214,956,478,956,956,742,956,478,742,0,478,0ZM828,649A100,100,0,0,1,728,749H228a100.06,100.06,0,0,1-93-136.8L82.66,488l23-9.7L87.83,435.9l154.82-65.24,17.86,42.39,24-10.09L346,549h40V385h85V361H432V313H570v48H531v24h86V549h90.79l97.83-155.45,8.47,5.33,35.53-56.47,11.67,7.34-15.66,69,8.23,5.18L769.48,558A100,100,0,0,1,828,649Z"/></g></g></svg>