<?xml version="1.0" encoding="utf-8"?>
<!-- Generator: Adobe Illustrator 22.1.0, SVG Export Plug-In . SVG Version: 6.00 Build 0)  -->
<svg version="1.1" id="Ebene_1" xmlns="http://www.w3.org/2000/svg" xmlns:xlink="http://www.w3.org/1999/xlink" x="0px" y="0px"
	 viewBox="0 0 1535 1535" style="enable-background:new 0 0 1535 1535;" xml:space="preserve">
<style type="text/css">
	.st0{fill:#FFFFFF;stroke:#CE3232;stroke-miterlimit:10;}
	.st1{fill:#EDEDED;stroke:#CE3232;stroke-miterlimit:10;}
</style>
<image style="overflow:visible;enable-background:new    ;" width="958" height="589" id="proxy.duckduckgo.com" xlink:href="BCE84459.png"  transform="matrix(1 0 0 1 291 473)">
</image>
<image style="overflow:visible;" width="958" height="589" xlink:href="BCE8445B.jpg"  transform="matrix(1 0 0 1 262.5 509)">
</image>
<path class="st0" d="M793.3,1086.2l-0.5,1l-0.1,0C792.9,1086.9,793.1,1086.6,793.3,1086.2z"/>
<path class="st0" d="M793.3,1086.2l-0.5,1l-0.1,0C792.9,1086.9,793.1,1086.6,793.3,1086.2z"/>
<path class="st0" d="M1028,914.7c0,37.7-50.8,68.3-113.5,68.3c-40.4,0-75.9-12.7-96-31.8l36.2-10.6l27.2,14.3
	c9.3,6.6,20.6,10.4,32.8,10.4c31.9,0,57.7-26.4,58.3-59.2l48.5-14.2C1025.7,899.1,1028,906.8,1028,914.7z"/>
<path class="st1" d="M1231.3,915.7c0-36.1-29.3-65.3-65.3-65.3c-12.3,0-23.9,3.4-33.7,9.4L1021.5,892c4.2,7.1,6.5,14.8,6.5,22.8
	c0,37.7-50.8,68.3-113.5,68.3c-40.4,0-75.9-12.7-96-31.8l-44.7,13L637.6,891l-21.8-76.4l185.3,97.7l53.6,28.3l27.2,14.3
	c9.3,6.6,20.6,10.4,32.8,10.4c31.9,0,57.7-26.4,58.3-59.2c0-0.4,0-0.8,0-1.1c0-25.3-15.1-47-36.5-56l-3.1-1.6L668.9,707.9
	c-11.9-9.1-30.4-14.9-51.2-14.9c-13.9,0-26.8,2.6-37.4,7.1L287,783.7l68.1,238.7l149.9-42.8c70,37.6,140,75.3,210,112.9
	c8,5.7,21.2,9.4,36.1,9.4c11.1,0,21.2-2.1,29-5.4l398.7-116.2l-0.2-0.6C1208.6,973.9,1231.3,947.5,1231.3,915.7z M792.8,1087.2
	L792.8,1087.2c0.1-0.3,0.3-0.7,0.5-1L792.8,1087.2z"/>
</svg>
